<svg t="1576828682610" class="icon" viewBox="0 0 1024 1024" version="1.1" xmlns="http://www.w3.org/2000/svg" p-id="1551" width="64" height="64"><path d="M512 174.933333C473.6 119.466667 409.6 85.333333 341.333333 85.333333H51.2C21.333333 85.333333 0 106.666667 0 136.533333V768c0 12.8 4.266667 25.6 17.066667 38.4 8.533333 8.533333 21.333333 17.066667 38.4 12.8 115.2 0 273.066667 4.266667 337.066666 34.133333 38.4 17.066667 81.066667 46.933333 93.866667 59.733334 8.533333 8.533333 21.333333 8.533333 29.866667 8.533333C512 810.666667 512 277.333333 512 174.933333z" fill="#2D303B" p-id="1552"></path><path d="M512 174.933333c38.4-55.466667 102.4-89.6 170.666667-89.6h290.133333c29.866667 0 51.2 21.333333 51.2 51.2V768c0 12.8-4.266667 25.6-17.066667 38.4-8.533333 8.533333-21.333333 17.066667-38.4 12.8-115.2 0-273.066667 4.266667-337.066666 34.133333-38.4 17.066667-81.066667 46.933333-93.866667 59.733334-8.533333 8.533333-21.333333 8.533333-29.866667 8.533333 4.266667-110.933333 4.266667-644.266667 4.266667-746.666667z" fill="#A7A8AD" p-id="1553"></path></svg>