<?xml version="1.0" encoding="utf-8"?>
<svg version="1.1" xmlns:xlink="http://www.w3.org/1999/xlink" width="35px" height="23px" xmlns="http://www.w3.org/2000/svg">
  <g transform="matrix(1 0 0 1 -736 -420 )">
    <path d="M 35 20.125  L 29.1666666666667 20.125  C 30.778125 20.125  32.06875 18.8384375  32 17.25  L 32 2.875  C 32.0833333333333 1.2865625  30.778125 0  29.1666666666667 0  L 5.83333333333333 0  C 4.221875 0  2.91666666666667 1.2865625  3 2.875  L 3 17.25  C 2.91666666666667 18.8384375  4.221875 20.125  5.83333333333333 20.125  L 0 20.125  L 0 23  L 35 23  L 35 20.125  Z M 6 17  L 6 3  L 29 3  L 29 17  L 6 17  Z " fill-rule="nonzero" stroke="none" transform="matrix(1 0 0 1 736 420 )" />
  </g>
</svg>