<?xml version="1.0" encoding="utf-8"?>
<svg version="1.1" xmlns:xlink="http://www.w3.org/1999/xlink" width="33px" height="33px" xmlns="http://www.w3.org/2000/svg">
  <g transform="matrix(1 0 0 1 -659 -415 )">
    <path d="M 33 16.5  C 33 7.38375  25.61625 0  16.5 0  C 7.38375 0  0 7.38375  0 16.5  C 0 25.61625  7.38375 33  16.5 33  C 25.61625 33  33 25.61625  33 16.5  Z M 11.55 9.9  C 11.55 7.16925  13.76925 4.95000000000001  16.5 4.95000000000001  C 19.23075 4.95000000000001  21.45 7.16925  21.45 9.9  C 21.45 12.639  19.23075 14.85  16.5 14.85  C 13.76925 14.85  11.55 12.639  11.55 9.9  Z M 26.4 23.067  C 24.26325 26.268  20.63325 28.38  16.5 28.38  C 12.36675 28.38  8.73675000000001 26.268  6.60000000000001 23.067  C 6.64125 19.79175  13.20825 17.985  16.5 17.985  C 19.79175 17.985  26.3505 19.79175  26.4 23.067  Z " fill-rule="nonzero" stroke="none" transform="matrix(1 0 0 1 659 415 )" />
  </g>
</svg>