<?xml version="1.0" standalone="no"?><!DOCTYPE svg PUBLIC "-//W3C//DTD SVG 1.1//EN" "http://www.w3.org/Graphics/SVG/1.1/DTD/svg11.dtd"><svg t="1575857199375" class="icon" viewBox="0 0 1024 1024" version="1.1" xmlns="http://www.w3.org/2000/svg" p-id="716" xmlns:xlink="http://www.w3.org/1999/xlink" width="200" height="200"><defs><style type="text/css"></style></defs><path d="M341.333333 955.733333a17.066667 17.066667 0 0 1-0.2048-34.133333c42.359467-0.512 77.243733-15.3088 106.6496-45.243733 29.627733-29.098667 44.424533-63.214933 45.4656-104.516267a16.725333 16.725333 0 0 1 1.706667-7.0144V682.666667a17.066667 17.066667 0 1 1 34.133333 0v85.333333a16.930133 16.930133 0 0 1-1.809066 7.645867c-1.8944 48.64-20.514133 90.641067-55.3472 124.842666-35.310933 35.9424-79.2576 54.613333-130.372267 55.227734L341.333333 955.733333z m341.333334 0a17.066667 17.066667 0 0 1-17.066667-17.066666V682.666667a17.066667 17.066667 0 1 1 34.133333 0v256a17.066667 17.066667 0 0 1-17.066666 17.066666z m-85.333334 0a17.066667 17.066667 0 0 1-17.066666-17.066666v-168.96a17.066667 17.066667 0 1 1 34.133333 0V938.666667a17.066667 17.066667 0 0 1-17.066667 17.066666z m170.666667-84.48a17.066667 17.066667 0 0 1-17.066667-17.066666V768a17.066667 17.066667 0 1 1 34.133334 0v86.186667a17.066667 17.066667 0 0 1-17.066667 17.066666z m-512 0a17.066667 17.066667 0 0 1-17.066667-17.066666V768a17.066667 17.066667 0 1 1 34.133334 0v86.186667a17.066667 17.066667 0 0 1-17.066667 17.066666z m85.333333-0.853333a17.066667 17.066667 0 0 1-17.066666-17.066667v-85.333333a17.066667 17.066667 0 1 1 34.133333 0v85.333333a17.066667 17.066667 0 0 1-17.066667 17.066667z m512-84.48a17.066667 17.066667 0 0 1-17.066666-17.066667V512a17.066667 17.066667 0 1 1 34.133333 0v256.853333a17.066667 17.066667 0 0 1-17.066667 17.066667z m-768 0a17.066667 17.066667 0 0 1-17.066666-17.066667V515.413333a17.066667 17.066667 0 0 1 34.133333 0v253.44a17.066667 17.066667 0 0 1-17.066667 17.066667zM426.666667 785.066667a17.066667 17.066667 0 0 1-17.066667-17.066667V597.333333a17.066667 17.066667 0 1 1 34.133333 0v170.666667a17.066667 17.066667 0 0 1-17.066666 17.066667z m-256-2.56a17.066667 17.066667 0 0 1-17.066667-17.066667v-165.546667a17.066667 17.066667 0 1 1 34.133333 0v165.5296a17.066667 17.066667 0 0 1-17.066666 17.083734z m768-80.213334a17.066667 17.066667 0 0 1-17.066667-17.066666V512c0-110.318933-39.133867-206.523733-116.3264-285.917867a17.066667 17.066667 0 1 1 24.4736-23.790933C913.3568 288.273067 955.733333 392.482133 955.733333 512v173.226667a17.066667 17.066667 0 0 1-17.066666 17.066666zM767.982933 699.733333a17.066667 17.066667 0 0 1-17.066666-17.066666V510.293333c-0.529067-65.774933-23.466667-120.507733-70.075734-167.133866-25.9584-25.924267-55.074133-44.663467-86.562133-55.688534a17.066667 17.066667 0 0 1 11.264-32.2048c36.386133 12.731733 69.8368 34.184533 99.4304 63.761067 52.5312 52.548267 79.479467 116.855467 80.0768 191.1296V682.666667a17.066667 17.066667 0 0 1-17.066667 17.066666zM341.333333 699.733333a17.066667 17.066667 0 0 1-17.066666-17.066666v-85.333334a17.066667 17.066667 0 1 1 34.133333 0v85.333334a17.066667 17.066667 0 0 1-17.066667 17.066666z m-85.333333 0a17.066667 17.066667 0 0 1-17.066667-17.066666V512c0-74.9056 26.948267-139.8272 80.093867-192.9728 29.508267-29.508267 63.214933-51.234133 100.1472-64.5632a17.066667 17.066667 0 1 1 11.588267 32.1024c-32.170667 11.6224-61.6448 30.6688-87.586134 56.593067C295.9872 390.331733 273.066667 445.5424 273.066667 512v170.666667a17.066667 17.066667 0 0 1-17.066667 17.066666z m341.333333-4.266666a17.066667 17.066667 0 0 1-17.066666-17.066667V510.293333c-0.443733-17.9712-7.185067-33.416533-20.599467-46.7968C546.389333 450.184533 530.7904 443.733333 512 443.733333c-18.8928 0-34.850133 6.519467-48.708267 19.950934C450.2528 477.149867 443.733333 493.1072 443.733333 512a17.066667 17.066667 0 1 1-34.133333 0c0-27.8016 9.949867-52.1728 29.5424-72.448C459.8272 419.549867 484.1984 409.6 512 409.6c27.921067 0 52.0704 10.001067 71.799467 29.7472 19.6096 19.592533 29.917867 43.332267 30.600533 70.519467v168.533333a17.066667 17.066667 0 0 1-17.066667 17.066667zM682.666667 614.4a17.066667 17.066667 0 0 1-17.066667-17.066667v-89.6c-1.024-40.925867-15.872-75.3664-45.346133-104.840533-28.910933-28.928-62.788267-43.4688-103.560534-44.4928a17.066667 17.066667 0 0 1-16.64-17.476267c0.238933-9.4208 8.413867-17.032533 17.476267-16.64 49.2544 1.2288 91.921067 19.5584 126.839467 54.4768 35.4816 35.4816 54.101333 78.728533 55.3472 128.546134V597.333333A17.032533 17.032533 0 0 1 682.666667 614.4z m-170.666667-1.706667a17.066667 17.066667 0 0 1-17.066667-17.066666V512a17.066667 17.066667 0 0 1 34.133334 0v83.626667a17.066667 17.066667 0 0 1-17.066667 17.066666z m-170.666667-87.893333h-0.426666A17.083733 17.083733 0 0 1 324.266667 507.306667c1.2288-49.7664 19.524267-92.9792 54.3744-128.443734a177.493333 177.493333 0 0 1 43.5712-32.2048 17.1008 17.1008 0 0 1 15.735466 30.3104 142.592 142.592 0 0 0-35.054933 25.941334C374.016 432.298667 359.424 466.756267 358.4 508.16a17.066667 17.066667 0 0 1-17.066667 16.64z m-248.302933-80.213333a17.083733 17.083733 0 0 1-16.7936-20.206934c15.940267-84.974933 56.832-161.160533 121.5488-226.474666 41.8816-41.2672 88.149333-72.891733 137.659733-94.122667a17.066667 17.066667 0 1 1 13.448534 31.368533c-45.585067 19.541333-88.32 48.7936-127.010134 86.920534-59.6992 60.228267-97.450667 130.4576-112.110933 208.5888a17.032533 17.032533 0 0 1-16.7424 13.9264z m87.893333-1.706667a17.0496 17.0496 0 0 1-16.5888-21.128533c14.8992-60.842667 46.574933-115.797333 94.1056-163.310934C327.406933 189.474133 412.1088 154.197333 510.190933 153.6h0.1024a17.066667 17.066667 0 0 1 0.1024 34.133333c-88.7808 0.529067-165.4272 32.443733-227.822933 94.839467-43.0592 43.042133-71.697067 92.603733-85.0944 147.3024a17.066667 17.066667 0 0 1-16.554667 13.0048z m662.152534 0c-7.662933 0-14.6432-5.205333-16.571734-13.0048-13.397333-54.6816-42.0352-104.2432-85.077333-147.3024-42.001067-41.984-90.2144-70.365867-143.3088-84.309333a17.066667 17.066667 0 0 1 8.669867-33.024c59.0336 15.5136 112.452267 46.865067 158.788266 93.184 47.530667 47.547733 79.2064 102.485333 94.122667 163.310933a17.066667 17.066667 0 0 1-16.622933 21.1456z m-75.946667-256a16.827733 16.827733 0 0 1-10.359467-3.5328C686.762667 129.6384 604.416 102.4 512 102.4a409.088 409.088 0 0 0-78.626133 7.3728 17.066667 17.066667 0 1 1-6.570667-33.501867A444.450133 444.450133 0 0 1 512 68.266667c100.113067 0 189.457067 29.610667 265.540267 88.0128a17.066667 17.066667 0 0 1-10.410667 30.600533z" p-id="717"></path></svg>